<svg version="1.1" id="Layer_1" xmlns="http://www.w3.org/2000/svg" xmlns:xlink="http://www.w3.org/1999/xlink" x="0px" y="0px"
	 width="100%" viewBox="0 0 1024 1024" enable-background="new 0 0 1024 1024" xml:space="preserve">
<path fill="#FFFFFF" opacity="1.000000" stroke="none" 
	d="
M1025.000000,363.000000 
	C1025.000000,584.000000 1025.000000,804.500000 1025.000000,1025.000000 
	C683.666687,1025.000000 342.333344,1025.000000 1.000000,1025.000000 
	C1.000000,683.666687 1.000000,342.333344 1.000000,1.000000 
	C342.333344,1.000000 683.666687,1.000000 1025.000000,1.000000 
	C1025.000000,121.500000 1025.000000,242.000000 1025.000000,363.000000 
M723.972534,49.954563 
	C723.972534,49.954563 723.936340,49.875744 723.320740,50.032116 
	C722.510254,50.699657 721.699829,51.367195 720.280945,52.295956 
	C713.821472,57.725876 712.473022,64.856842 712.947327,72.868492 
	C713.467773,81.659515 716.886597,88.743416 724.871155,92.534416 
	C735.746460,97.697929 746.971130,102.125572 758.687744,107.172935 
	C767.766235,110.913849 776.844727,114.654762 786.410522,118.875214 
	C807.863770,127.696045 829.317017,136.516876 851.665344,145.705765 
	C845.810059,148.109238 841.070007,150.008148 836.366577,151.993546 
	C814.547363,161.203812 792.738342,170.438126 770.177673,179.843491 
	C758.133423,184.927460 746.089172,190.011444 733.323364,195.149689 
	C731.189026,196.071213 729.084595,197.070877 726.915588,197.901962 
	C708.896606,204.806335 708.405640,233.759140 723.454651,242.330719 
	C723.962341,242.580444 724.470032,242.830170 725.312256,243.545349 
	C725.832031,243.771423 726.351746,243.997513 727.323730,244.816772 
	C736.072510,248.288269 744.278320,246.871490 752.028809,242.048874 
	C752.028809,242.048874 752.031982,242.128799 752.762390,242.065674 
	C754.036499,241.400116 755.310608,240.734573 756.751282,240.235504 
	C756.751282,240.235504 756.955933,240.118912 757.474670,240.060425 
	C757.635864,239.994812 757.796997,239.929199 758.671753,239.752853 
	C774.140259,233.294983 789.608704,226.837112 805.713135,220.208542 
	C806.214355,219.826843 806.715515,219.445129 807.629272,219.059799 
	C807.629272,219.059799 808.021240,218.931274 808.774292,218.977692 
	C822.216553,213.337677 835.658813,207.697662 849.022705,202.038422 
	C849.022705,202.038422 849.041931,202.116821 849.519531,202.067245 
	C849.519531,202.067245 849.967346,201.893997 850.693665,201.854187 
	C869.119507,194.253342 887.662842,186.922119 905.930969,178.959442 
	C918.693481,173.396576 926.996948,163.681137 927.982239,149.344437 
	C928.988892,134.697449 922.609802,123.258835 909.777283,116.401749 
	C900.598755,111.497154 890.600403,108.126839 880.371582,103.707291 
	C874.588501,101.422554 868.805359,99.137817 863.033936,96.950989 
	C863.033936,96.950989 863.127808,96.920944 862.790161,96.308060 
	C847.217346,89.759392 831.644592,83.210724 815.605225,76.157455 
	C796.056641,68.143166 776.508118,60.128876 756.321594,51.797153 
	C754.357178,50.922821 752.430603,49.947670 750.421509,49.192223 
	C743.078918,46.431313 735.685608,44.168598 727.383301,47.935947 
	C726.906799,48.220924 726.430298,48.505905 725.354126,48.925381 
	C724.865295,49.262577 724.376404,49.599773 723.972534,49.954563 
M540.932739,217.643646 
	C541.280396,218.125534 541.627991,218.607407 542.168823,219.691208 
	C543.406372,220.805283 544.643860,221.919357 546.315918,223.597260 
	C552.120117,227.684906 558.381226,228.073990 565.688049,225.882416 
	C607.300049,208.459778 648.925659,191.069412 690.496948,173.550140 
	C693.651245,172.220825 696.774414,170.370621 699.308777,168.091629 
	C713.067932,155.718979 712.207031,128.600983 689.630188,118.607430 
	C666.291199,108.276520 642.529968,98.899475 618.336304,88.771942 
	C601.096313,81.682144 583.964539,74.306297 566.537781,67.709923 
	C562.343445,66.122284 557.170898,67.118988 552.508240,66.714439 
	C552.508240,66.714439 552.309387,66.617798 551.522583,66.612984 
	C551.026978,66.774559 550.531433,66.936134 549.341187,67.140587 
	C535.866699,74.553909 533.748596,89.895500 545.077881,100.510803 
	C545.381897,100.687561 545.685913,100.864311 545.994995,100.994499 
	C545.994995,100.994499 545.956360,101.020920 546.393799,101.549446 
	C560.236206,107.503944 574.078613,113.458450 588.405334,119.887627 
	C608.483826,128.484161 628.562256,137.080704 648.926331,145.799515 
	C616.326904,159.720596 584.356567,173.379761 552.380066,187.024277 
	C541.495667,191.668701 536.831360,199.600311 538.366211,211.721054 
	C539.208069,213.531311 540.049927,215.341568 540.929382,217.053574 
	C540.929382,217.053574 540.824707,217.042908 540.932739,217.643646 
M501.029053,121.944687 
	C501.029053,121.944687 501.108978,121.932831 500.630951,121.417389 
	C496.758911,119.959557 492.886841,118.501732 488.625793,116.932533 
	C488.625793,116.932533 488.221161,116.933685 487.854706,116.323631 
	C482.580963,114.171616 477.307190,112.019600 472.029938,109.948662 
	C472.029938,109.948662 472.109711,109.933861 471.648590,109.402306 
	C463.771729,106.286026 455.894897,103.169746 447.623322,99.935440 
	C447.623322,99.935440 447.211365,99.937347 446.838501,99.332870 
	C441.567596,97.278831 436.296722,95.224785 430.177979,93.026039 
	C421.853699,93.042168 416.770233,95.687073 414.811707,101.021118 
	C412.744049,106.652321 414.121124,111.615784 419.400055,116.530205 
	C426.563629,119.433975 433.727173,122.337753 440.938202,125.089737 
	C440.938202,125.089737 440.834167,125.210022 441.131653,125.836533 
	C446.395142,128.016891 451.658661,130.197235 457.397675,132.863617 
	C463.945038,135.545258 470.492371,138.226883 477.659851,141.234543 
	C481.063080,143.136765 484.466339,145.038971 487.949982,146.976379 
	C487.949982,146.976379 487.972412,146.891495 487.206238,146.938828 
	C468.482941,154.984772 449.759613,163.030716 430.318756,171.152100 
	C426.341461,173.186905 421.934631,174.675339 418.487793,177.384918 
	C413.356262,181.418869 412.710541,189.512817 416.222809,195.155685 
	C419.896729,201.058258 427.314575,203.051804 434.839142,199.814453 
	C462.754913,187.803986 490.606628,175.644608 518.527954,163.647110 
	C525.695984,160.567093 529.615906,155.235428 530.031433,147.619934 
	C530.483948,139.326660 526.463013,133.174118 519.334106,129.293610 
	C515.427856,127.167328 511.096222,125.822647 506.319397,123.826378 
	C504.558289,123.172318 502.797180,122.518257 501.029053,121.944687 
M479.395996,699.104553 
	C478.950531,699.409058 478.505066,699.713501 478.011749,700.951904 
	C478.005615,769.637024 478.003662,838.322144 477.980621,907.007263 
	C477.979523,910.329285 477.793030,913.651306 477.239502,917.565369 
	C475.388428,929.780457 470.964081,941.044678 463.600006,951.923767 
	C473.117218,951.923767 481.580688,951.923767 490.499573,951.955688 
	C490.499573,951.955688 490.955017,951.924011 491.885834,951.998535 
	C495.943878,951.975647 500.001892,951.952698 504.984283,951.977051 
	C658.179077,951.977051 811.373840,951.977051 965.018066,951.977051 
	C965.018066,949.632568 965.018127,947.999451 965.018066,946.366394 
	C965.017334,904.717896 965.023132,863.069397 965.014587,821.420898 
	C964.994812,725.296753 964.968079,629.172668 964.617737,532.447449 
	C946.634338,522.731934 928.683472,512.955750 910.661194,503.312958 
	C866.843018,479.868073 823.005615,456.459076 779.147034,433.089874 
	C761.395691,423.631439 743.598999,414.256927 725.761414,404.962219 
	C719.016052,401.447388 712.097351,398.265289 704.757263,394.398468 
	C703.903564,394.114868 703.049927,393.831268 701.931824,393.459808 
	C701.931824,438.931396 701.931824,483.967285 701.217468,528.928040 
	C686.970947,521.370789 672.698181,513.862610 658.483704,506.245575 
	C632.241394,492.183258 606.099609,477.932007 579.796082,463.985565 
	C536.142822,440.840027 492.396118,417.870789 448.680084,394.843781 
	C447.418091,394.179047 446.058228,393.700287 444.363342,392.971008 
	C444.213226,394.586029 444.020325,395.696442 444.019745,396.806976 
	C443.997986,439.459015 443.947449,482.111237 444.134491,524.762390 
	C444.143158,526.741089 445.833252,529.349976 447.527802,530.583679 
	C462.263092,541.312317 472.266174,555.393616 475.754547,573.182800 
	C477.745850,583.337646 477.328918,593.967590 477.946411,604.386536 
	C478.069000,606.454773 477.964111,608.536438 477.964111,611.175293 
	C497.083893,611.175293 515.321960,611.175293 534.011292,611.175293 
	C534.011292,640.869629 534.011292,669.991272 533.072266,699.092102 
	C515.374268,699.127869 497.676239,699.163635 479.395996,699.104553 
M144.002731,908.809143 
	C144.310013,932.574402 169.560562,956.352844 194.976273,955.984802 
	C265.634796,955.970825 336.293335,955.956909 407.795166,955.997192 
	C432.830902,953.331055 453.704010,931.679993 453.829865,904.064331 
	C454.299286,801.068176 454.091248,698.068542 453.924103,595.070557 
	C453.904602,583.060181 449.045349,572.580566 441.085327,563.434448 
	C429.081818,549.642395 413.409607,545.120361 395.972931,545.084045 
	C349.640533,544.987488 303.307800,545.011536 256.975342,545.079224 
	C247.885376,545.092468 240.044754,547.564453 233.480621,554.840820 
	C222.334702,567.196106 210.392227,578.838623 198.665558,590.662720 
	C182.235245,607.229614 165.621613,623.615540 149.287369,640.275879 
	C146.972290,642.637207 145.789734,646.108887 144.023407,649.989014 
	C144.037476,735.974243 144.051529,821.959534 144.002731,908.809143 
M300.054016,515.359802 
	C299.075348,496.793365 298.036438,478.229828 297.136169,459.659576 
	C296.347839,443.397583 295.703827,427.128571 295.018555,410.861694 
	C294.633820,401.729553 294.419983,392.588501 293.909698,383.463745 
	C292.705139,361.925507 291.319489,340.397369 290.104645,318.859650 
	C289.347076,305.428986 288.755859,291.988831 288.110138,278.551971 
	C287.081787,257.152496 286.087921,235.751343 285.044922,214.352585 
	C284.430634,201.749771 283.677002,189.153442 283.114014,176.548492 
	C282.031708,152.317825 281.063965,128.082031 279.986603,103.851128 
	C279.818726,100.075462 279.323029,96.314369 278.963409,92.376541 
	C229.174255,92.376541 179.813736,92.376541 130.413162,92.376541 
	C129.600357,107.516647 128.758057,122.251999 128.032379,136.993103 
	C127.313766,151.590561 126.701416,166.193283 126.062798,180.794617 
	C125.046661,204.027603 124.056206,227.261703 123.037872,250.494598 
	C122.390556,265.262756 121.694542,280.028778 121.052193,294.797119 
	C120.027222,318.362488 119.042412,341.929657 118.014038,365.494873 
	C117.384071,379.930664 116.695816,394.363922 116.049202,408.799011 
	C115.038246,431.367401 114.046898,453.936707 113.034668,476.505035 
	C112.387260,490.939484 111.702095,505.372253 111.060730,519.807007 
	C110.035912,542.871704 109.053856,565.938293 108.013779,589.002319 
	C107.400391,602.604309 106.683548,616.201538 106.060242,629.803040 
	C105.026131,652.369019 104.028084,674.936646 103.018364,697.503662 
	C102.357620,712.271179 101.688461,727.038391 101.049019,741.806763 
	C100.028549,765.375122 99.042473,788.944824 98.016975,812.512939 
	C97.388802,826.949463 96.671600,841.382202 96.071388,855.819824 
	C95.346596,873.254028 94.660873,890.690125 94.038071,908.128235 
	C93.534752,922.220459 93.149757,936.316956 92.708374,950.537231 
	C107.346771,950.537231 121.977417,950.537231 137.431549,950.537231 
	C125.424767,935.659851 122.323387,919.134338 122.839081,901.280212 
	C123.387314,882.299011 122.957481,863.289673 122.959030,844.292603 
	C122.964317,779.302734 122.974091,714.312805 122.974472,649.322937 
	C122.974510,641.700073 125.113853,634.631165 130.407303,629.237976 
	C160.630051,598.446167 191.011383,567.809326 221.446991,537.227539 
	C229.756989,528.877625 239.650177,524.442810 251.863922,524.886353 
	C266.342560,525.412292 280.854950,525.009949 295.352692,525.009888 
	C297.097504,525.009888 298.842346,525.009888 300.670593,525.009888 
	C300.429047,521.562927 300.245026,518.936768 300.054016,515.359802 
z"/>
<path fill="#C9D1D8" opacity="1.000000" stroke="none" 
	d="
M534.011292,699.112854 
	C534.011292,669.991272 534.011292,640.869629 534.011292,611.175293 
	C515.321960,611.175293 497.083893,611.175293 477.964111,611.175293 
	C477.964111,608.536438 478.069000,606.454773 477.946411,604.386536 
	C477.328918,593.967590 477.745850,583.337646 475.754547,573.182800 
	C472.266174,555.393616 462.263092,541.312317 447.527802,530.583679 
	C445.833252,529.349976 444.143158,526.741089 444.134491,524.762390 
	C443.947449,482.111237 443.997986,439.459015 444.019745,396.806976 
	C444.020325,395.696442 444.213226,394.586029 444.363342,392.971008 
	C446.058228,393.700287 447.418091,394.179047 448.680084,394.843781 
	C492.396118,417.870789 536.142822,440.840027 579.796082,463.985565 
	C606.099609,477.932007 632.241394,492.183258 658.483704,506.245575 
	C672.698181,513.862610 686.970947,521.370789 701.890076,528.684326 
	C702.707642,522.470337 702.971619,516.500183 702.978027,510.529724 
	C703.017639,473.723358 702.968689,436.916779 703.095886,400.110809 
	C703.101868,398.381897 704.505127,396.657837 705.257690,394.931519 
	C712.097351,398.265289 719.016052,401.447388 725.761414,404.962219 
	C743.598999,414.256927 761.395691,423.631439 779.147034,433.089874 
	C823.005615,456.459076 866.843018,479.868073 910.661194,503.312958 
	C928.683472,512.955750 946.634338,522.731934 964.488892,533.037292 
	C964.240051,535.608154 964.015137,537.589111 964.014893,539.570129 
	C963.998413,674.356079 964.000061,809.142090 963.999695,943.928040 
	C963.999634,950.997192 963.997681,950.999573 957.113464,950.999634 
	C808.165771,951.000549 659.218140,950.997131 510.270447,951.039795 
	C508.200165,951.040405 506.130096,951.620239 504.059937,951.929688 
	C500.001892,951.952698 495.943878,951.975647 491.341675,951.807861 
	C490.546417,951.719360 490.295288,951.821533 490.044159,951.923767 
	C481.580688,951.923767 473.117218,951.923767 463.600006,951.923767 
	C470.964081,941.044678 475.388428,929.780457 477.838745,917.037109 
	C478.626160,914.550964 478.977997,912.593262 478.978790,910.635376 
	C479.006409,843.044617 479.000549,775.453918 479.000336,707.863159 
	C479.000305,700.999451 479.002808,700.998230 486.083282,700.997742 
	C500.400543,700.996826 514.718384,701.058716 529.034180,700.914124 
	C530.699097,700.897400 532.352539,699.740906 534.011292,699.112854 
M804.512329,699.028931 
	C830.241638,699.028931 855.971008,699.028931 881.565186,699.028931 
	C881.565186,669.167664 881.565186,640.267883 881.565186,611.366089 
	C851.578064,611.366089 822.016602,611.366089 792.325439,611.366089 
	C792.325439,640.657349 792.325439,669.555786 792.325439,699.029358 
	C796.274109,699.029358 799.896790,699.029358 804.512329,699.028931 
M616.121704,694.307251 
	C616.237549,695.743896 616.353455,697.180481 616.471008,698.638672 
	C646.446167,698.638672 675.981506,698.638672 705.675293,698.638672 
	C705.675293,669.362732 705.675293,640.477844 705.675293,611.283569 
	C675.826904,611.283569 646.294067,611.283569 616.122681,611.283569 
	C616.122681,638.836609 616.122681,666.091736 616.121704,694.307251 
z"/>
<path fill="#C9D1D8" opacity="1.000000" stroke="none" 
	d="
M300.057495,515.835205 
	C300.245026,518.936768 300.429047,521.562927 300.670593,525.009888 
	C298.842346,525.009888 297.097504,525.009888 295.352692,525.009888 
	C280.854950,525.009949 266.342560,525.412292 251.863922,524.886353 
	C239.650177,524.442810 229.756989,528.877625 221.446991,537.227539 
	C191.011383,567.809326 160.630051,598.446167 130.407303,629.237976 
	C125.113853,634.631165 122.974510,641.700073 122.974472,649.322937 
	C122.974091,714.312805 122.964317,779.302734 122.959030,844.292603 
	C122.957481,863.289673 123.387314,882.299011 122.839081,901.280212 
	C122.323387,919.134338 125.424767,935.659851 137.431549,950.537231 
	C121.977417,950.537231 107.346771,950.537231 92.708374,950.537231 
	C93.149757,936.316956 93.534752,922.220459 94.038071,908.128235 
	C94.660873,890.690125 95.346596,873.254028 96.071388,855.819824 
	C96.671600,841.382202 97.388802,826.949463 98.016975,812.512939 
	C99.042473,788.944824 100.028549,765.375122 101.049019,741.806763 
	C101.688461,727.038391 102.357620,712.271179 103.018364,697.503662 
	C104.028084,674.936646 105.026131,652.369019 106.060242,629.803040 
	C106.683548,616.201538 107.400391,602.604309 108.013779,589.002319 
	C109.053856,565.938293 110.035912,542.871704 111.060730,519.807007 
	C111.702095,505.372253 112.387260,490.939484 113.034668,476.505035 
	C114.046898,453.936707 115.038246,431.367401 116.049202,408.799011 
	C116.695816,394.363922 117.384071,379.930664 118.014038,365.494873 
	C119.042412,341.929657 120.027222,318.362488 121.052193,294.797119 
	C121.694542,280.028778 122.390556,265.262756 123.037872,250.494598 
	C124.056206,227.261703 125.046661,204.027603 126.062798,180.794617 
	C126.701416,166.193283 127.313766,151.590561 128.032379,136.993103 
	C128.758057,122.251999 129.600357,107.516647 130.413162,92.376541 
	C179.813736,92.376541 229.174255,92.376541 278.963409,92.376541 
	C279.323029,96.314369 279.818726,100.075462 279.986603,103.851128 
	C281.063965,128.082031 282.031708,152.317825 283.114014,176.548492 
	C283.677002,189.153442 284.430634,201.749771 285.044922,214.352585 
	C286.087921,235.751343 287.081787,257.152496 288.110138,278.551971 
	C288.755859,291.988831 289.347076,305.428986 290.104645,318.859650 
	C291.319489,340.397369 292.705139,361.925507 293.909698,383.463745 
	C294.419983,392.588501 294.633820,401.729553 295.018555,410.861694 
	C295.703827,427.128571 296.347839,443.397583 297.136169,459.659576 
	C298.036438,478.229828 299.075348,496.793365 300.057495,515.835205 
z"/>
<path fill="#C9D1D8" opacity="1.000000" stroke="none" 
	d="
M194.049988,955.938599 
	C169.560562,956.352844 144.310013,932.574402 144.320892,908.084717 
	C144.759583,906.047241 144.985321,904.734253 144.985580,903.421265 
	C145.002075,820.206970 145.005234,736.992615 144.961792,653.778320 
	C144.960968,652.207642 144.388687,650.637207 144.083038,649.066650 
	C145.789734,646.108887 146.972290,642.637207 149.287369,640.275879 
	C165.621613,623.615540 182.235245,607.229614 198.665558,590.662720 
	C210.392227,578.838623 222.334702,567.196106 233.480621,554.840820 
	C240.044754,547.564453 247.885376,545.092468 256.975342,545.079224 
	C303.307800,545.011536 349.640533,544.987488 395.972931,545.084045 
	C413.409607,545.120361 429.081818,549.642395 441.085327,563.434448 
	C449.045349,572.580566 453.904602,583.060181 453.924103,595.070557 
	C454.091248,698.068542 454.299286,801.068176 453.829865,904.064331 
	C453.704010,931.679993 432.830902,953.331055 407.081909,955.680847 
	C405.389069,955.242310 404.409546,955.013306 403.429962,955.013062 
	C335.037201,954.997070 266.644440,954.993713 198.251724,955.039062 
	C196.850937,955.039978 195.450546,955.625732 194.049988,955.938599 
M369.862213,643.450134 
	C364.478821,642.632080 359.099365,641.136475 353.711426,641.105347 
	C317.558716,640.896301 281.404175,640.965576 245.250412,641.045349 
	C241.126862,641.054443 236.950836,641.377808 232.891006,642.083740 
	C212.976990,645.546387 198.001785,663.367004 197.992615,683.529480 
	C197.967087,739.676331 197.896927,795.823608 198.142624,851.969360 
	C198.165863,857.283569 199.501602,862.920715 201.576080,867.839355 
	C209.801895,887.343201 225.174759,896.062256 246.024506,896.026245 
	C281.845123,895.964478 317.666290,896.085510 353.486176,895.911194 
	C358.728485,895.885681 364.137695,895.276917 369.173004,893.873596 
	C387.251770,888.834900 397.965790,873.689148 399.840942,855.485229 
	C401.021423,844.025269 400.957428,832.403687 400.911713,820.856750 
	C400.729950,774.961487 400.459839,729.065735 399.957336,683.173035 
	C399.765350,665.639038 387.429230,649.553894 369.862213,643.450134 
z"/>
<path fill="#38AEF7" opacity="1.000000" stroke="none" 
	d="
M756.959534,52.114601 
	C776.508118,60.128876 796.056641,68.143166 815.931641,76.770103 
	C816.725586,77.833603 817.114319,78.467918 817.672607,78.707794 
	C826.180298,82.363594 834.662476,86.086380 843.250427,89.545593 
	C849.803345,92.185081 856.496826,94.475327 863.127808,96.920944 
	C863.127808,96.920944 863.033936,96.950989 863.194946,97.213776 
	C865.070984,98.394051 866.703552,99.547447 868.517639,100.181175 
	C872.620117,101.614304 876.812195,102.790970 880.967834,104.071945 
	C890.600403,108.126839 900.598755,111.497154 909.777283,116.401749 
	C922.609802,123.258835 928.988892,134.697449 927.982239,149.344437 
	C926.996948,163.681137 918.693481,173.396576 905.930969,178.959442 
	C887.662842,186.922119 869.119507,194.253342 850.225708,201.715958 
	C849.519104,201.757431 849.280518,201.937134 849.041931,202.116821 
	C849.041931,202.116821 849.022705,202.038422 848.655884,202.033844 
	C839.826416,205.203735 831.288940,208.195648 822.928711,211.620331 
	C817.818787,213.713593 812.981140,216.471756 808.021240,218.931274 
	C808.021240,218.931274 807.629272,219.059799 807.070068,219.066467 
	C806.032959,219.508484 805.555054,219.943848 805.077209,220.379227 
	C789.608704,226.837112 774.140259,233.294983 758.200134,239.653244 
	C757.471008,239.742065 757.213501,239.930496 756.955933,240.118927 
	C756.955933,240.118912 756.751282,240.235504 756.267151,240.138947 
	C754.532654,240.737854 753.282349,241.433319 752.031982,242.128799 
	C752.031982,242.128799 752.028809,242.048874 751.658508,242.039505 
	C743.489502,244.584793 735.647095,246.411331 727.496399,243.537537 
	C727.382874,243.497482 727.083923,243.983276 726.871582,244.223618 
	C726.351746,243.997513 725.832031,243.771423 725.135864,243.014145 
	C724.314941,242.303177 723.670410,242.123398 723.025879,241.943619 
	C708.405640,233.759140 708.896606,204.806335 726.915588,197.901962 
	C729.084595,197.070877 731.189026,196.071213 733.899048,195.367889 
	C742.981140,192.232590 751.543640,189.012466 759.968506,185.465286 
	C763.762512,183.867859 767.281738,181.617767 770.925659,179.663818 
	C792.738342,170.438126 814.547363,161.203812 836.366577,151.993546 
	C841.070007,150.008148 845.810059,148.109238 851.665344,145.705765 
	C829.317017,136.516876 807.863770,127.696045 786.078613,118.269547 
	C785.291382,117.205711 784.918884,116.552261 784.368286,116.318787 
	C776.640869,113.042198 768.905884,109.781273 761.119568,106.648727 
	C760.263184,106.304153 759.078491,106.775696 758.046021,106.868736 
	C746.971130,102.125572 735.746460,97.697929 724.871155,92.534416 
	C716.886597,88.743416 713.467773,81.659515 712.947327,72.868492 
	C712.473022,64.856842 713.821472,57.725876 720.958496,52.148338 
	C722.402771,51.292389 723.169556,50.584061 723.936340,49.875736 
	C723.936340,49.875744 723.972534,49.954563 724.257446,49.937584 
	C725.012878,49.544025 725.483337,49.167450 725.953796,48.790878 
	C726.430298,48.505905 726.906799,48.220924 727.913330,48.240097 
	C737.481628,47.245285 746.214233,47.795269 754.338196,52.558323 
	C754.923889,52.901749 756.072571,52.284950 756.959534,52.114601 
z"/>
<path fill="#38ADF7" opacity="1.000000" stroke="none" 
	d="
M545.881409,223.033432 
	C544.643860,221.919357 543.406372,220.805283 542.051025,219.069458 
	C541.563782,217.979431 541.194275,217.511169 540.824707,217.042908 
	C540.824707,217.042908 540.929382,217.053574 540.946106,216.719696 
	C540.079224,214.603867 539.195618,212.821930 538.312073,211.040009 
	C536.831360,199.600311 541.495667,191.668701 552.380066,187.024277 
	C584.356567,173.379761 616.326904,159.720596 648.926331,145.799515 
	C628.562256,137.080704 608.483826,128.484161 588.077820,119.283852 
	C580.128296,115.150696 572.583069,111.441277 564.859985,108.148842 
	C558.670715,105.510269 552.265686,103.377922 545.956360,101.020920 
	C545.956360,101.020920 545.994995,100.994499 545.864868,100.778305 
	C545.422485,100.390694 545.110229,100.219269 544.797913,100.047852 
	C533.748596,89.895500 535.866699,74.553909 549.875000,67.355530 
	C551.042358,67.252907 551.675842,66.935349 552.309387,66.617798 
	C552.309387,66.617798 552.508240,66.714439 552.960083,66.842918 
	C558.881592,68.111839 564.617554,68.555969 569.769531,70.526794 
	C583.717407,75.862465 597.389771,81.914406 611.241516,87.508911 
	C613.636414,88.476158 616.374084,88.594643 618.953430,89.105179 
	C642.529968,98.899475 666.291199,108.276520 689.630188,118.607430 
	C712.207031,128.600983 713.067932,155.718979 699.308777,168.091629 
	C696.774414,170.370621 693.651245,172.220825 690.496948,173.550140 
	C648.925659,191.069412 607.300049,208.459778 565.066528,225.617218 
	C559.823853,224.990234 555.195190,224.700378 550.585388,224.227280 
	C548.993347,224.063873 547.448059,223.444519 545.881409,223.033432 
z"/>
<path fill="#37ADF7" opacity="1.000000" stroke="none" 
	d="
M418.964630,115.989555 
	C414.121124,111.615784 412.744049,106.652321 414.811707,101.021118 
	C416.770233,95.687073 421.853699,93.042168 430.669800,93.440689 
	C436.511566,95.882675 441.861450,97.910011 447.211365,99.937347 
	C447.211365,99.937347 447.623322,99.935440 447.975037,100.305153 
	C452.656067,102.677567 456.911316,104.866982 461.338379,106.623337 
	C464.818848,108.004112 468.511383,108.850243 472.109711,109.933868 
	C472.109711,109.933861 472.029938,109.948662 472.155060,110.245712 
	C477.593842,112.673080 482.907501,114.803383 488.221161,116.933685 
	C488.221161,116.933685 488.625793,116.932533 488.972290,117.302185 
	C493.248871,119.092171 497.178925,120.512505 501.108978,121.932831 
	C501.108978,121.932831 501.029053,121.944687 501.145874,122.232590 
	C503.160583,123.055496 505.058472,123.590515 506.956390,124.125534 
	C511.096222,125.822647 515.427856,127.167328 519.334106,129.293610 
	C526.463013,133.174118 530.483948,139.326660 530.031433,147.619934 
	C529.615906,155.235428 525.695984,160.567093 518.527954,163.647110 
	C490.606628,175.644608 462.754913,187.803986 434.839142,199.814453 
	C427.314575,203.051804 419.896729,201.058258 416.222809,195.155685 
	C412.710541,189.512817 413.356262,181.418869 418.487793,177.384918 
	C421.934631,174.675339 426.341461,173.186905 430.890747,171.363510 
	C433.031616,171.181702 434.687531,170.991852 436.155701,170.363403 
	C448.807159,164.947769 461.460114,159.532410 474.034424,153.941238 
	C478.785889,151.828491 483.332458,149.254974 487.972412,146.891495 
	C487.972412,146.891495 487.949982,146.976379 488.240906,146.926910 
	C488.703064,146.164413 489.083069,144.848007 489.015656,144.824677 
	C485.047119,143.451508 481.041656,142.185135 477.039734,140.908508 
	C470.492371,138.226883 463.945038,135.545258 457.072540,132.257507 
	C451.442993,129.504288 446.138580,127.357155 440.834167,125.210022 
	C440.834167,125.210022 440.938202,125.089737 440.786652,124.832397 
	C433.411621,121.713219 426.188110,118.851387 418.964630,115.989555 
z"/>
<path fill="#BAC4CD" opacity="1.000000" stroke="none" 
	d="
M504.522095,951.953369 
	C506.130096,951.620239 508.200165,951.040405 510.270447,951.039795 
	C659.218140,950.997131 808.165771,951.000549 957.113464,950.999634 
	C963.997681,950.999573 963.999634,950.997192 963.999695,943.928040 
	C964.000061,809.142090 963.998413,674.356079 964.014893,539.570129 
	C964.015137,537.589111 964.240051,535.608154 964.652100,533.337830 
	C964.968079,629.172668 964.994812,725.296753 965.014587,821.420898 
	C965.023132,863.069397 965.017334,904.717896 965.018066,946.366394 
	C965.018127,947.999451 965.018066,949.632568 965.018066,951.977051 
	C811.373840,951.977051 658.179077,951.977051 504.522095,951.953369 
z"/>
<path fill="#BCC5CE" opacity="1.000000" stroke="none" 
	d="
M533.541748,699.102478 
	C532.352539,699.740906 530.699097,700.897400 529.034180,700.914124 
	C514.718384,701.058716 500.400543,700.996826 486.083282,700.997742 
	C479.002808,700.998230 479.000305,700.999451 479.000336,707.863159 
	C479.000549,775.453918 479.006409,843.044617 478.978790,910.635376 
	C478.977997,912.593262 478.626160,914.550964 478.065460,916.741089 
	C477.793030,913.651306 477.979523,910.329285 477.980621,907.007263 
	C478.003662,838.322144 478.005615,769.637024 478.309082,700.461426 
	C479.063690,699.713806 479.520966,699.456604 479.978241,699.199463 
	C497.676239,699.163635 515.374268,699.127869 533.541748,699.102478 
z"/>
<path fill="#BCC5CE" opacity="1.000000" stroke="none" 
	d="
M144.053223,649.527832 
	C144.388687,650.637207 144.960968,652.207642 144.961792,653.778320 
	C145.005234,736.992615 145.002075,820.206970 144.985580,903.421265 
	C144.985321,904.734253 144.759583,906.047241 144.352325,907.652466 
	C144.051529,821.959534 144.037476,735.974243 144.053223,649.527832 
z"/>
<path fill="#BCC5CE" opacity="1.000000" stroke="none" 
	d="
M194.513123,955.961670 
	C195.450546,955.625732 196.850937,955.039978 198.251724,955.039062 
	C266.644440,954.993713 335.037201,954.997070 403.429962,955.013062 
	C404.409546,955.013306 405.389069,955.242310 406.660248,955.653687 
	C336.293335,955.956909 265.634796,955.970825 194.513123,955.961670 
z"/>
<path fill="#BAC4CD" opacity="1.000000" stroke="none" 
	d="
M705.007446,394.664978 
	C704.505127,396.657837 703.101868,398.381897 703.095886,400.110809 
	C702.968689,436.916779 703.017639,473.723358 702.978027,510.529724 
	C702.971619,516.500183 702.707642,522.470337 702.247253,528.721924 
	C701.931824,483.967285 701.931824,438.931396 701.931824,393.459808 
	C703.049927,393.831268 703.903564,394.114868 705.007446,394.664978 
z"/>
<path fill="#1FA3F6" opacity="1.000000" stroke="none" 
	d="
M618.644897,88.938560 
	C616.374084,88.594643 613.636414,88.476158 611.241516,87.508911 
	C597.389771,81.914406 583.717407,75.862465 569.769531,70.526794 
	C564.617554,68.555969 558.881592,68.111839 552.930054,66.949303 
	C557.170898,67.118988 562.343445,66.122284 566.537781,67.709923 
	C583.964539,74.306297 601.096313,81.682144 618.644897,88.938560 
z"/>
<path fill="#1FA3F6" opacity="1.000000" stroke="none" 
	d="
M487.589325,146.915161 
	C483.332458,149.254974 478.785889,151.828491 474.034424,153.941238 
	C461.460114,159.532410 448.807159,164.947769 436.155701,170.363403 
	C434.687531,170.991852 433.031616,171.181702 431.249542,171.325790 
	C449.759613,163.030716 468.482941,154.984772 487.589325,146.915161 
z"/>
<path fill="#1FA3F6" opacity="1.000000" stroke="none" 
	d="
M862.958984,96.614502 
	C856.496826,94.475327 849.803345,92.185081 843.250427,89.545593 
	C834.662476,86.086380 826.180298,82.363594 817.672607,78.707794 
	C817.114319,78.467918 816.725586,77.833603 816.164917,77.022400 
	C831.644592,83.210724 847.217346,89.759392 862.958984,96.614502 
z"/>
<path fill="#1FA3F6" opacity="1.000000" stroke="none" 
	d="
M546.175049,101.285187 
	C552.265686,103.377922 558.670715,105.510269 564.859985,108.148842 
	C572.583069,111.441277 580.128296,115.150696 587.835693,119.046509 
	C574.078613,113.458450 560.236206,107.503944 546.175049,101.285187 
z"/>
<path fill="#1FA3F6" opacity="1.000000" stroke="none" 
	d="
M808.397766,218.954483 
	C812.981140,216.471756 817.818787,213.713593 822.928711,211.620331 
	C831.288940,208.195648 839.826416,205.203735 848.695068,202.043457 
	C835.658813,207.697662 822.216553,213.337677 808.397766,218.954483 
z"/>
<path fill="#1FA3F6" opacity="1.000000" stroke="none" 
	d="
M770.551636,179.753662 
	C767.281738,181.617767 763.762512,183.867859 759.968506,185.465286 
	C751.543640,189.012466 742.981140,192.232590 734.259827,195.340744 
	C746.089172,190.011444 758.133423,184.927460 770.551636,179.753662 
z"/>
<path fill="#1FA3F6" opacity="1.000000" stroke="none" 
	d="
M756.640564,51.955879 
	C756.072571,52.284950 754.923889,52.901749 754.338196,52.558323 
	C746.214233,47.795269 737.481628,47.245285 728.206909,48.244507 
	C735.685608,44.168598 743.078918,46.431313 750.421509,49.192223 
	C752.430603,49.947670 754.357178,50.922821 756.640564,51.955879 
z"/>
<path fill="#1FA3F6" opacity="1.000000" stroke="none" 
	d="
M758.366882,107.020836 
	C759.078491,106.775696 760.263184,106.304153 761.119568,106.648727 
	C768.905884,109.781273 776.640869,113.042198 784.368286,116.318787 
	C784.918884,116.552261 785.291382,117.205711 785.834961,118.029770 
	C776.844727,114.654762 767.766235,110.913849 758.366882,107.020836 
z"/>
<path fill="#1FA3F6" opacity="1.000000" stroke="none" 
	d="
M471.879150,109.668091 
	C468.511383,108.850243 464.818848,108.004112 461.338379,106.623337 
	C456.911316,104.866982 452.656067,102.677567 448.172363,100.364166 
	C455.894897,103.169746 463.771729,106.286026 471.879150,109.668091 
z"/>
<path fill="#1FA3F6" opacity="1.000000" stroke="none" 
	d="
M727.097656,244.520203 
	C727.083923,243.983276 727.382874,243.497482 727.496399,243.537537 
	C735.647095,246.411331 743.489502,244.584793 751.697815,242.046906 
	C744.278320,246.871490 736.072510,248.288269 727.097656,244.520203 
z"/>
<path fill="#1FA3F6" opacity="1.000000" stroke="none" 
	d="
M419.182343,116.259880 
	C426.188110,118.851387 433.411621,121.713219 440.762939,124.908287 
	C433.727173,122.337753 426.563629,119.433975 419.182343,116.259880 
z"/>
<path fill="#1FA3F6" opacity="1.000000" stroke="none" 
	d="
M880.669678,103.889618 
	C876.812195,102.790970 872.620117,101.614304 868.517639,100.181175 
	C866.703552,99.547447 865.070984,98.394051 863.189148,97.164825 
	C868.805359,99.137817 874.588501,101.422554 880.669678,103.889618 
z"/>
<path fill="#1FA3F6" opacity="1.000000" stroke="none" 
	d="
M447.024933,99.635117 
	C441.861450,97.910011 436.511566,95.882675 431.093750,93.513039 
	C436.296722,95.224785 441.567596,97.278831 447.024933,99.635117 
z"/>
<path fill="#1FA3F6" opacity="1.000000" stroke="none" 
	d="
M440.982910,125.523277 
	C446.138580,127.357155 451.442993,129.504288 456.834778,132.014496 
	C451.658661,130.197235 446.395142,128.016891 440.982910,125.523277 
z"/>
<path fill="#1FA3F6" opacity="1.000000" stroke="none" 
	d="
M488.037933,116.628662 
	C482.907501,114.803383 477.593842,112.673080 472.156799,110.205177 
	C477.307190,112.019600 482.580963,114.171616 488.037933,116.628662 
z"/>
<path fill="#1FA3F6" opacity="1.000000" stroke="none" 
	d="
M546.098633,223.315338 
	C547.448059,223.444519 548.993347,224.063873 550.585388,224.227280 
	C555.195190,224.700378 559.823853,224.990234 564.701965,225.626007 
	C558.381226,228.073990 552.120117,227.684906 546.098633,223.315338 
z"/>
<path fill="#1FA3F6" opacity="1.000000" stroke="none" 
	d="
M477.349792,141.071533 
	C481.041656,142.185135 485.047119,143.451508 489.015656,144.824677 
	C489.083069,144.848007 488.703064,146.164413 488.200714,146.909302 
	C484.466339,145.038971 481.063080,143.136765 477.349792,141.071533 
z"/>
<path fill="#1FA3F6" opacity="1.000000" stroke="none" 
	d="
M500.869965,121.675110 
	C497.178925,120.512505 493.248871,119.092171 489.166809,117.357864 
	C492.886841,118.501732 496.758911,119.959557 500.869965,121.675110 
z"/>
<path fill="#1FA3F6" opacity="1.000000" stroke="none" 
	d="
M506.637878,123.975952 
	C505.058472,123.590515 503.160583,123.055496 501.149353,122.192337 
	C502.797180,122.518257 504.558289,123.172318 506.637878,123.975952 
z"/>
<path fill="#1FA3F6" opacity="1.000000" stroke="none" 
	d="
M538.339111,211.380524 
	C539.195618,212.821930 540.079224,214.603867 540.927307,216.768814 
	C540.049927,215.341568 539.208069,213.531311 538.339111,211.380524 
z"/>
<path fill="#1FA3F6" opacity="1.000000" stroke="none" 
	d="
M752.397217,242.097229 
	C753.282349,241.433319 754.532654,240.737854 756.183838,240.055695 
	C755.310608,240.734573 754.036499,241.400116 752.397217,242.097229 
z"/>
<path fill="#1FA3F6" opacity="1.000000" stroke="none" 
	d="
M723.628540,49.953922 
	C723.169556,50.584061 722.402771,51.292389 721.262695,52.017727 
	C721.699829,51.367195 722.510254,50.699657 723.628540,49.953922 
z"/>
<path fill="#1FA3F6" opacity="1.000000" stroke="none" 
	d="
M723.240234,242.137177 
	C723.670410,242.123398 724.314941,242.303177 724.968628,242.781418 
	C724.470032,242.830170 723.962341,242.580444 723.240234,242.137177 
z"/>
<path fill="#1FA3F6" opacity="1.000000" stroke="none" 
	d="
M805.395142,220.293884 
	C805.555054,219.943848 806.032959,219.508484 806.863770,219.068268 
	C806.715515,219.445129 806.214355,219.826843 805.395142,220.293884 
z"/>
<path fill="#1FA3F6" opacity="1.000000" stroke="none" 
	d="
M540.878723,217.343262 
	C541.194275,217.511169 541.563782,217.979431 541.954468,218.768494 
	C541.627991,218.607407 541.280396,218.125534 540.878723,217.343262 
z"/>
<path fill="#1FA3F6" opacity="1.000000" stroke="none" 
	d="
M551.916016,66.615387 
	C551.675842,66.935349 551.042358,67.252907 550.222290,67.334091 
	C550.531433,66.936134 551.026978,66.774559 551.916016,66.615387 
z"/>
<path fill="#C9D1D8" opacity="1.000000" stroke="none" 
	d="
M479.687134,699.151978 
	C479.520966,699.456604 479.063690,699.713806 478.333008,699.994446 
	C478.505066,699.713501 478.950531,699.409058 479.687134,699.151978 
z"/>
<path fill="#1FA3F6" opacity="1.000000" stroke="none" 
	d="
M725.653931,48.858128 
	C725.483337,49.167450 725.012878,49.544025 724.214966,49.928787 
	C724.376404,49.599773 724.865295,49.262577 725.653931,48.858128 
z"/>
<path fill="#1FA3F6" opacity="1.000000" stroke="none" 
	d="
M544.937866,100.279327 
	C545.110229,100.219269 545.422485,100.390694 545.862366,100.801590 
	C545.685913,100.864311 545.381897,100.687561 544.937866,100.279327 
z"/>
<path fill="#BAC4CD" opacity="1.000000" stroke="none" 
	d="
M490.271851,951.939697 
	C490.295288,951.821533 490.546417,951.719360 490.876282,951.770569 
	C490.955017,951.924011 490.499573,951.955688 490.271851,951.939697 
z"/>
<path fill="#1FA3F6" opacity="1.000000" stroke="none" 
	d="
M849.280762,202.092041 
	C849.280518,201.937134 849.519104,201.757431 849.862549,201.735870 
	C849.967346,201.893997 849.519531,202.067245 849.280762,202.092041 
z"/>
<path fill="#1FA3F6" opacity="1.000000" stroke="none" 
	d="
M757.215332,240.089676 
	C757.213501,239.930496 757.471008,239.742065 757.843384,239.708618 
	C757.796997,239.929199 757.635864,239.994812 757.215332,240.089676 
z"/>
<path fill="#FFFFFF" opacity="1.000000" stroke="none" 
	d="
M804.015869,699.029175 
	C799.896790,699.029358 796.274109,699.029358 792.325439,699.029358 
	C792.325439,669.555786 792.325439,640.657349 792.325439,611.366089 
	C822.016602,611.366089 851.578064,611.366089 881.565186,611.366089 
	C881.565186,640.267883 881.565186,669.167664 881.565186,699.028931 
	C855.971008,699.028931 830.241638,699.028931 804.015869,699.029175 
z"/>
<path fill="#FFFFFF" opacity="1.000000" stroke="none" 
	d="
M616.122192,693.827026 
	C616.122681,666.091736 616.122681,638.836609 616.122681,611.283569 
	C646.294067,611.283569 675.826904,611.283569 705.675293,611.283569 
	C705.675293,640.477844 705.675293,669.362732 705.675293,698.638672 
	C675.981506,698.638672 646.446167,698.638672 616.471008,698.638672 
	C616.353455,697.180481 616.237549,695.743896 616.122192,693.827026 
z"/>
<path fill="#E4E9ED" opacity="1.000000" stroke="none" 
	d="
M370.228729,643.604797 
	C387.429230,649.553894 399.765350,665.639038 399.957336,683.173035 
	C400.459839,729.065735 400.729950,774.961487 400.911713,820.856750 
	C400.957428,832.403687 401.021423,844.025269 399.840942,855.485229 
	C397.965790,873.689148 387.251770,888.834900 369.173004,893.873596 
	C364.137695,895.276917 358.728485,895.885681 353.486176,895.911194 
	C317.666290,896.085510 281.845123,895.964478 246.024506,896.026245 
	C225.174759,896.062256 209.801895,887.343201 201.576080,867.839355 
	C199.501602,862.920715 198.165863,857.283569 198.142624,851.969360 
	C197.896927,795.823608 197.967087,739.676331 197.992615,683.529480 
	C198.001785,663.367004 212.976990,645.546387 232.891006,642.083740 
	C236.950836,641.377808 241.126862,641.054443 245.250412,641.045349 
	C281.404175,640.965576 317.558716,640.896301 353.711426,641.105347 
	C359.099365,641.136475 364.478821,642.632080 370.228729,643.604797 
z"/>
</svg>