<?xml version="1.0" standalone="no"?>
<!DOCTYPE svg PUBLIC "-//W3C//DTD SVG 20010904//EN"
 "http://www.w3.org/TR/2001/REC-SVG-20010904/DTD/svg10.dtd">
<svg version="1.0" xmlns="http://www.w3.org/2000/svg"
 width="735.000000pt" height="700.000000pt" viewBox="0 0 735.000000 700.000000"
 preserveAspectRatio="xMidYMid meet">

<g transform="translate(0.000000,700.000000) scale(0.100000,-0.100000)"
fill="#000000" stroke="none">
<path d="M3643 6988 c-18 -5 -43 -23 -57 -41 -33 -43 -127 -222 -308 -582
-143 -285 -459 -898 -646 -1253 -128 -242 -200 -311 -363 -343 -130 -25 -1026
-174 -1349 -224 -480 -74 -712 -113 -790 -131 -105 -24 -148 -82 -116 -158 10
-24 250 -273 722 -748 739 -746 876 -889 921 -966 49 -84 46 -165 -32 -692
-36 -250 -100 -662 -140 -915 -129 -798 -131 -821 -108 -869 21 -45 71 -70
121 -61 19 4 211 96 426 206 598 305 1569 786 1628 806 69 24 177 23 247 0 59
-20 1028 -500 1637 -811 209 -107 397 -197 416 -201 50 -9 100 16 122 61 16
34 16 44 0 163 -9 69 -40 277 -70 461 -62 386 -101 635 -181 1160 -45 301 -57
400 -57 505 -1 122 1 133 25 180 51 95 41 85 1066 1115 394 397 567 577 578
604 33 78 -9 136 -115 160 -88 20 -296 55 -725 120 -198 31 -412 64 -475 75
-63 11 -290 50 -505 86 -214 36 -418 72 -453 80 -111 26 -186 77 -249 170 -34
50 -408 766 -698 1335 -282 555 -334 653 -363 683 -25 24 -71 35 -109 25z
m-480 -2820 c15 -11 38 -41 51 -66 47 -93 51 -138 50 -572 0 -380 -2 -410 -22
-493 -31 -127 -63 -181 -124 -213 -91 -47 -197 31 -233 173 -27 105 -33 221
-31 583 2 382 4 399 59 505 59 117 157 149 250 83z m1173 23 c80 -36 124 -132
144 -307 15 -134 21 -639 9 -739 -5 -44 -21 -117 -34 -162 -50 -164 -160 -220
-260 -132 -78 69 -100 167 -116 530 -8 191 -8 313 -1 439 15 246 45 334 126
371 52 23 80 23 132 0z"/>
</g>
</svg>
